<?xml version="1.0" standalone="no"?>
<!DOCTYPE svg PUBLIC "-//W3C//DTD SVG 20010904//EN"
 "http://www.w3.org/TR/2001/REC-SVG-20010904/DTD/svg10.dtd">
<svg version="1.0" xmlns="http://www.w3.org/2000/svg"
 width="626.000000pt" height="626.000000pt" viewBox="0 0 626.000000 626.000000"
 preserveAspectRatio="xMidYMid meet">

<g transform="translate(0.000000,626.000000) scale(0.100000,-0.100000)"
fill="#808080" stroke="none">
<path d="M2865 5814 c-182 -28 -321 -72 -491 -153 -458 -220 -757 -596 -860
-1081 -27 -128 -25 -400 4 -537 83 -386 299 -703 639 -940 94 -65 286 -161
407 -203 124 -42 316 -80 451 -87 l113 -6 6 -30 c16 -82 0 -306 -35 -477 -90
-441 -363 -1001 -853 -1754 l-78 -119 69 38 c318 177 651 405 928 636 138 116
407 380 536 527 539 614 892 1349 1013 2112 38 238 50 369 50 570 1 194 -13
288 -65 452 -32 101 -132 295 -200 393 -246 347 -659 592 -1114 660 -125 19
-397 18 -520 -1z"/>
</g>
</svg>
